<?xml version="1.0" encoding="utf-8"?>
<!-- Generator: Adobe Illustrator 19.0.0, SVG Export Plug-In . SVG Version: 6.00 Build 0)  -->
<svg version="1.1" id="layer" xmlns="http://www.w3.org/2000/svg" xmlns:xlink="http://www.w3.org/1999/xlink" x="0px" y="0px"
	 viewBox="-153 -46 652 652" style="enable-background:new -153 -46 652 652;" xml:space="preserve">
<style type="text/css">
	.st0{fill:#06273A;}
	.st1{fill:#F4F3F3;}
	.st2{opacity:0.5;fill:#F4F3F3;enable-background:new    ;}
</style>
<rect x="-132" y="125" class="st0" width="600" height="300"/>
<path class="st1" d="M-82.3,216.2V295h32.4c0.7,0,1.3,0.6,1.3,1.3l0,0v16.2c0,0.7-0.6,1.4-1.3,1.4h0h-50.9c-0.7,0-1.2-0.6-1.2-1.2
	c0,0,0-0.1,0-0.1v-96.3c-0.1-0.7,0.4-1.3,1.1-1.3c0,0,0.1,0,0.1,0h17.1C-83,214.9-82.3,215.5-82.3,216.2
	C-82.3,216.2-82.3,216.2-82.3,216.2z M-97.8,317.5h1.2l8.8,8.9h-0.6c-0.3,0-0.7-0.2-0.9-0.5L-97.8,317.5z M-94.2,317.5h2.3l8.8,8.9
	h-2.4L-94.2,317.5z M-87,317.5l8.6,8.9h-2.3l-8.9-8.9H-87z M-84.8,317.5h2.4l8.8,8.8h-2.6L-84.8,317.5z M-68.8,326.3h-2.4l-8.8-8.9
	h2.4L-68.8,326.3z M-78.8,221.6l8.7,8.8v2.3l-8.7-8.7V221.6z M-70.1,237.5l-8.7-8.7v-2.6l8.7,8.9V237.5z M-70.1,242.3l-8.7-8.9v-2.4
	l8.7,8.7V242.3z M-70.1,246.9l-8.7-8.8v-2.3l8.7,8.8V246.9z M-70.1,251.6l-8.7-8.6v-2.6l8.7,8.9V251.6z M-70.1,256.5l-8.7-8.8v-2.4
	l8.7,8.7V256.5z M-70.1,261.2l-8.7-8.9v-2.4l8.7,8.8V261.2z M-70.1,265.9l-8.7-8.9v-2.3l8.7,8.9V265.9z M-70.1,270.5l-8.7-8.5v-2.4
	l8.7,8.7V270.5z M-70.1,275.5l-8.7-8.9v-2.4l8.7,8.8V275.5z M-70.1,280.1l-8.7-8.9v-2.4l8.7,8.9V280.1z M-70.1,284.8l-8.7-8.7v-2.3
	l8.7,8.7V284.8z M-70.1,289.5l-8.7-8.7v-2.4l8.7,8.8V289.5z M-73.1,291.4l-5.7-5.9v-2.4l8.3,8.3H-73.1z M-78.8,287.8l3.4,3.6h-2.4
	l-1.1-1.1V287.8z M-66.6,326.3l-8.7-8.9h2.3l8.8,8.9H-66.6z M-59.6,326.3h-2.3l-8.7-8.9h2.3L-59.6,326.3z M-63.5,317.4l8.8,8.9H-57
	l-8.8-8.9H-63.5z M-61.2,317.4h2.4l8.9,8.9h-2.4L-61.2,317.4z M-45.3,326.3h-2.4l-8.6-8.9h2.3L-45.3,326.3z M-49.4,317.4l8.9,8.9
	h-2.3l-8.9-8.9H-49.4z M-46.2,315.8l9.8,9.8c-0.2,0.4-0.6,0.7-1.1,0.8h-0.6l-9.5-9.5C-47,316.6-46.6,316.2-46.2,315.8z M-45,312.2
	l8.7,8.9v2.3l-9.1-9c0.2-0.6,0.4-1.2,0.5-1.8L-45,312.2z M-36.6,307.7c0.2,0.3,0.3,0.6,0.3,0.9v0.6l-8.7-8.8v-1.1L-36.6,307.7z
	 M-36.3,313.8L-45,305v-2.4l8.7,8.9L-36.3,313.8z M-45,307.5l8.7,8.7v2.3l-8.7-8.7V307.5z"/>
<path class="st1" d="M-28.8,312.5v-96.3c-0.1-0.7,0.4-1.3,1.1-1.3c0,0,0.1,0,0.1,0h17.1c0.7,0,1.4,0.6,1.4,1.3c0,0,0,0,0,0v96.3
	c0,0.7-0.6,1.4-1.3,1.4h0h-17.1c-0.7,0-1.2-0.6-1.2-1.2C-28.8,312.6-28.8,312.5-28.8,312.5z M-24.6,317.5h2.1l8.9,8.9h-1.5
	c-0.3,0-0.7-0.2-0.9-0.5L-24.6,317.5z M-11.3,326.3l-8.9-8.9h2.6l8.6,8.8L-11.3,326.3z M-15.3,317.5h2.4l8.8,8.9h-2.5L-15.3,317.5z
	 M-10.7,317.5h0.2c0.7,0,1.3-0.1,1.9-0.5l9.2,9.3h-2.4L-10.7,317.5z M3.1,324.2v0.8c0,0.6-0.1,0.9-0.5,1l-9.8-9.9
	c0.4-0.4,0.7-0.8,0.9-1.4L3.1,324.2z M3.1,231.8l-8.7-8.7v-2.4l8.7,8.9L3.1,231.8z M3.1,236.6l-8.7-8.9v-2.4l8.7,8.8L3.1,236.6z
	 M3.1,241.3l-8.7-8.7V230l8.7,8.9V241.3z M3.1,246.1l-8.7-8.8v-2.3l8.7,8.9V246.1z M3.1,250.7l-8.7-8.7v-2.4l8.7,8.8L3.1,250.7z
	 M3.1,255.5l-8.7-8.7v-2.6l8.7,8.9V255.5z M3.1,260.3l-8.7-8.9v-2.4l8.7,8.7V260.3z M3.1,265l-8.7-8.9v-2.3l8.7,8.7V265z M3.1,269.6
	l-8.7-8.5v-2.6l8.7,8.9V269.6z M3.1,274.6l-8.7-8.9v-2.4l8.7,8.7V274.6z M3.1,279.2l-8.7-8.9v-2.3l8.7,8.7V279.2z M3.1,283.9
	l-8.7-8.9v-2.3l8.7,8.9L3.1,283.9z M3.1,288.5l-8.7-8.5v-2.4l8.7,8.7V288.5z M3.1,293.5l-8.7-8.9v-2.4l8.7,8.8V293.5z M3.1,298.1
	l-8.7-8.9v-2.4l8.7,8.9V298.1z M3.1,302.8l-8.7-8.7v-2.3l8.7,8.6V302.8z M3.1,307.5l-8.7-8.7v-2.4l8.7,8.8V307.5z M3.1,312.3
	l-8.7-8.8v-2.4l8.7,8.9L3.1,312.3z M3.1,317l-8.7-8.7V306l8.7,8.6V317z M3.1,321.8l-8.7-8.9v-2.2l8.7,8.9V321.8z"/>
<path class="st1" d="M82.8,244.6V284c0,17-6.3,27.3-24.1,30.8v9.3c-0.1,0.8-0.7,1.4-1.5,1.5H40c-0.8-0.1-1.4-0.7-1.5-1.5v-9.3
	c-16.8-3.1-24.3-13-24.3-30.8v-39.4c0-22.2,12.1-31.1,34.5-31.1C69.5,213.5,82.8,221.8,82.8,244.6z M34.5,319.5
	c-0.9-1-1.8-2-2.9-2.9c0.5,0.2,1,0.3,1.5,0.3l1.8,1.9v1.1C34.8,319.9,34.6,319.7,34.5,319.5z M63,249.5c0-13.2-7.2-15.9-13.5-15.9
	h-2c-9.3,0-13.4,6.1-13.4,15.9v29.7c0,13,7.2,15.9,13.4,15.9h2c9.3,0,13.5-6.3,13.5-15.9V249.5z M47,257.6l-9.1-9.2
	c0-0.8,0.1-1.5,0.1-2.3l9.4,9.3C47.3,256.2,47.2,256.9,47,257.6z M37.8,253.1v-2.3l9,8.9c-0.1,0.7-0.2,1.5-0.1,2.3L37.8,253.1z
	 M37.8,257.8v-2.3l8.9,8.9v2.4L37.8,257.8z M37.8,262.7v-2.4l8.8,8.7v2.5L37.8,262.7z M37.8,267.4V265l8.9,8.8v2.4L37.8,267.4z
	 M37.8,272v-2.3l8.9,8.9v2.3L37.8,272z M46.7,285.5l-8.9-8.6v-2.4l8.9,8.7V285.5z M37.8,279.2l8.9,8.9v2.4l-8.7-8.9
	C37.8,280.8,37.8,280,37.8,279.2z M48,253.7l-9.6-9.4c0.1-0.6,0.3-1.2,0.6-1.8l9.8,9.8C48.3,252.6,48.1,253.1,48,253.7z M38.4,284.5
	l6.9,6.9c-1.6-0.3-3.1-0.9-4.4-1.8C39.7,288.1,38.8,286.3,38.4,284.5z M49.6,250.7l-9.9-9.9c0.3-0.6,0.5-1.1,1-1.4l9.8,9.9
	C50.3,249.8,49.8,250.1,49.6,250.7z M51.9,248.3l-9.8-9.8c0.4-0.4,0.9-0.6,1.5-0.8l9.8,9.4C52.8,247.7,52.5,247.9,51.9,248.3z
	 M45.1,329l8.9,8.9h-1.5c-0.6,0-1.1-0.3-1.4-0.8L43,329H45.1z M55,246.8l-9.3-9.6H48l9,9C56.3,246.3,55.7,246.5,55,246.8z M49.8,329
	l8.9,8.9h-2.4l-8.9-8.9H49.8z M50.4,237.2c0.9,0,1.7,0.1,2.5,0.3l5.7,5.7l0.6,2.9L50.4,237.2z M61,337.8l-8.9-8.8h2.3l8.9,8.8H61z
	 M68.3,337.8h-2.5L57,329h0.1c0.6,0,1.2-0.1,1.8-0.3L68.3,337.8z M70.2,337.7l-9.8-9.9c0.5-0.5,0.6-0.8,1-1.2L71,336v0.3
	C71,336.9,70.7,337.4,70.2,337.7L70.2,337.7z M71,329l-8.7-9v-2.3l9.3,9.3c-0.2,0.1-0.3,0.1-0.6,0.1L71,329z M71,333.8l-8.7-9v-2.3
	l8.7,8.7V333.8z M73.5,326.6L64,317c0.6-0.1,1.1-0.2,1.7-0.5l9.6,9.5C74.7,326.2,74.1,326.4,73.5,326.6L73.5,326.6z M69.1,315.2
	l9.8,9.8c-0.6,0.1-1.1,0.3-1.6,0.6l-9.8-9.6C68.1,315.7,68.6,315.5,69.1,315.2L69.1,315.2z M80.5,324.2l-9.8-9.8
	c0.5-0.3,1-0.5,1.5-0.8l9.8,9.8C81.5,323.6,81.1,324,80.5,324.2L80.5,324.2z M83.5,322.5l-9.8-9.8c0.4-0.4,0.9-0.7,1.3-1l9.8,9.8
	C84.5,321.9,84.1,322.3,83.5,322.5z M86.4,320.4l-9.9-9.7c0.3-0.5,0.9-0.8,1.2-1.2l9.8,10C87.1,319.9,86.8,320.2,86.4,320.4
	L86.4,320.4z M88.6,318.2l-9.8-9.9c0.3-0.5,0.8-0.8,1.1-1.2l9.8,9.8C89.4,317.3,89,317.8,88.6,318.2L88.6,318.2z M81.9,304.2
	l9.8,9.8c-0.4,0.5-0.7,1-0.9,1.5l-9.8-9.9C81.3,305.3,81.5,304.7,81.9,304.2L81.9,304.2z M83.4,301.1l9.8,9.6
	c-0.2,0.6-0.6,1-0.8,1.6l-9.8-9.8C83,302.2,83.3,301.7,83.4,301.1L83.4,301.1z M84.8,297.5l9.3,9.6c0,0.7-0.1,1.3-0.3,2l-9.6-9.6
	C84.3,298.8,84.5,298.1,84.8,297.5L84.8,297.5z M84.8,231.3c3.1,3,5.7,6.4,7.7,10.2l-6.9-7.2C85.2,233.4,85,232.6,84.8,231.3z
	 M85.6,293.7l9.2,9.3c0,0.8-0.2,1.5-0.2,1.9l-9.5-9.3C85.3,295,85.4,294.4,85.6,293.7L85.6,293.7z M93.8,245
	c0.3,1.2,0.5,2.1,0.8,3.3l-8.3-8.3c0-1.1-0.3-1.9-0.3-2.7L93.8,245z M86.3,289.7l9,9v2.3l-9.3-9.2C86.2,291.1,86.3,290.4,86.3,289.7
	z M86.4,242.4L95,251c0,0.8,0.3,1.8,0.3,2.7l-8.9-8.8V242.4z M86.4,247.3l8.9,8.9v2.4l-8.9-9V247.3z M95.3,263.3l-8.9-8.8v-2.4
	l8.9,8.7V263.3z M86.4,256.7l8.9,8.8v2.4l-8.9-8.9V256.7z M86.4,261.5l8.9,8.9v2.3l-8.9-8.9V261.5z M86.4,266.3l8.9,8.7v2.3
	l-8.9-8.7V266.3z M86.4,271l8.9,8.8v2.4l-8.9-8.9V271z M86.4,275.6l8.9,8.9v2.4l-8.9-8.9V275.6z M86.4,280.5l8.9,8.7v2.3l-8.9-8.7
	V280.5z M86.4,285.2l8.9,8.9v2.4l-8.9-9V285.2z"/>
<path class="st1" d="M155.4,216.2c0-0.7,0.6-1.3,1.3-1.3h17.1c0.7,0,1.3,0.6,1.3,1.3V284c0,21.6-11.8,31.4-34.2,31.4
	c-21.2,0-34.3-8.4-34.3-31.4v-67.8c0-0.7,0.6-1.3,1.3-1.3h17.3c0.7,0,1.3,0.6,1.3,1.3v63c0,13,7.3,15.9,13.5,15.9h1.8
	c9.3,0,13.5-6.3,13.5-15.9L155.4,216.2z M124.2,316.7c0.2,0.1,0.5,0.1,0.8,0.1l5,5.1C127.7,320.5,126.2,318.4,124.2,316.7z
	 M135.2,324.8l-7.1-7.2c1,0.4,2,0.6,3,0.6l7.7,7.6C137.4,325.5,136.3,325.1,135.2,324.8z M130.2,220.3v-1.1l8.4,8.4
	c0.2,0.3,0.3,0.6,0.3,0.9v0.6L130.2,220.3z M130.2,225.1v-2.3l8.7,8.6v2.4L130.2,225.1z M138.9,238.6l-8.7-8.7v-2.4l8.7,8.9V238.6z
	 M138.9,243.4l-8.7-8.9v-2.4l8.7,8.8V243.4z M138.9,248l-8.7-8.7v-2.6l8.7,8.9V248z M138.9,252.8l-8.7-8.8v-2.3l8.7,8.9V252.8z
	 M138.9,257.5l-8.7-8.9v-2.3l8.7,8.8V257.5z M138.9,262.3l-8.7-8.7V251l8.7,8.9V262.3z M138.9,267.1l-8.7-8.9v-2.4l8.7,8.7V267.1z
	 M138.9,271.7l-8.7-8.9v-2.3l8.7,8.7V271.7z M138.9,276.4l-8.7-8.6v-2.5l8.7,8.9V276.4z M138.9,281.3l-8.7-8.8V270l8.7,8.7V281.3z
	 M138.9,286l-8.7-8.9v-2.4l8.7,8.8V286z M130.2,279.5l8.7,8.9v2.3l-8.6-8.6C130.2,281.2,130.2,280.4,130.2,279.5z M131,284.8
	l6.3,6.6c-1.4-0.2-2.8-0.8-3.9-1.8C132,288.3,131.2,286.6,131,284.8z M141.8,326.6l-8.1-8.1c0.9,0.2,1.8,0.3,2.7,0.3l8.3,8.4
	C143.7,327.1,142.7,326.8,141.8,326.6z M141.2,319l8.7,8.5h-2.4l-8.7-8.5H141.2z M145.7,318.8l9,9h-2.4l-8.8-8.9
	C144.2,319,144.9,318.8,145.7,318.8z M150,318.4l9.2,9.1h-2.3l-9-9C148.7,318.5,149.4,318.4,150,318.4z M154.2,317.6l9.1,9.5
	c-0.6,0-1.3,0.1-2.1,0.1l-9.2-9.1C152.8,318,153.5,317.8,154.2,317.6z M156.8,316.9c0.3,0,0.6-0.1,0.9-0.1l9.6,9.3
	c-0.6,0.2-1.2,0.4-1.8,0.6l-9.5-9.3C156.2,317,156.6,317,156.8,316.9z M161.3,315.4l9.6,9.6c-0.6,0.1-1.1,0.3-1.7,0.6l-9.6-9.6
	C160.2,315.8,160.7,315.5,161.3,315.4z M172.5,324.2l-9.8-9.6c0.5-0.2,1-0.5,1.5-0.9l9.8,9.8C173.6,323.8,173.1,324.1,172.5,324.2
	L172.5,324.2z M167.3,311.8l9.8,9.8c-0.5,0.4-1,0.8-1.5,1l-9.8-9.8C166.3,312.4,166.7,312.2,167.3,311.8z M169.7,309.5l9.8,10
	l-1.1,1l-9.8-9.9C168.9,310.3,169.3,310.1,169.7,309.5z M171.9,307.1l9.8,9.8c-0.2,0.5-0.5,1-0.9,1.4l-9.9-9.8
	C171.2,308,171.6,307.5,171.9,307.1z M173.9,304.3l9.8,9.8c-0.2,0.5-0.5,1-0.8,1.5l-9.9-9.8C173.3,305.3,173.6,304.8,173.9,304.3
	L173.9,304.3z M175.5,301.1l9.6,9.8c-0.1,0.5-0.3,1-0.6,1.5l-9.8-9.6C175,302.2,175.3,301.7,175.5,301.1L175.5,301.1z M176.9,297.8
	l9.3,9.3c0,0.7-0.1,1.3-0.3,1.9l-9.6-9.6C176.4,298.9,176.7,298.3,176.9,297.8L176.9,297.8z M177.8,294l9.4,9.2
	c-0.1,0.7-0.2,1.4-0.4,2.1l-9.3-9.4C177.6,295.3,177.6,294.5,177.8,294L177.8,294z M178.4,289.9l9.2,9c0,0.8-0.2,1.6-0.2,2.3
	l-9.1-9.1C178.3,291.3,178.4,290.6,178.4,289.9L178.4,289.9z M178.7,285.4l8.8,8.9v2.4l-9-9C178.6,286.9,178.7,286.1,178.7,285.4z
	 M178.7,219.2l8.6,8.4c0.2,0.3,0.3,0.6,0.3,0.9v1.8l-8.8-8.8V219.2z M178.7,223.9l8.8,8.9v2.4l-8.8-8.9V223.9z M178.7,228.5l8.8,8.9
	v2.4l-8.8-8.7V228.5z M178.7,233.5l8.8,8.5v2.6l-8.8-8.9V233.5z M178.7,238.1l8.8,8.9v2.3l-8.8-8.9V238.1z M178.7,242.8l8.8,8.9v2.3
	l-8.8-8.6V242.8z M178.7,247.6l8.8,8.7v2.6l-8.8-8.9V247.6z M178.7,252.4l8.8,8.7v2.4l-8.8-8.9V252.4z M178.7,257l8.8,8.9v2.3
	l-8.8-8.9V257z M178.7,261.8l8.8,8.7v2.5l-8.8-8.8V261.8z M178.7,266.5l8.8,8.9v2.4l-8.8-8.9V266.5z M178.7,271.3l8.8,8.7v2.4
	l-8.8-8.9V271.3z M178.7,276.1l8.8,8.7v2.3l-8.8-8.7V276.1z M178.7,280.7l8.8,8.9v2.4l-8.8-8.9V280.7z"/>
<path class="st1" d="M261.2,222.5c4.5,4.9,6.6,12,6.6,22.1V284c0,10.4-2.1,17.5-6.6,22.4c-5.9,6-14.7,9-27.6,9c-13.3,0-22-3-27.8-9
	c-4.3-4.8-6.8-12-6.8-22.4v-39.4c0-10.1,2.3-17.3,6.8-22.2c5.7-6.2,14.7-8.9,27.7-8.9C246.5,213.5,255.5,216.4,261.2,222.5z
	 M221.4,321.5c-1-0.6-1.9-1.4-2.7-2.3l-2.6-2.5c0.2,0,0.4,0.1,0.6,0.1L221.4,321.5z M247.8,249.5c0-13.2-7-15.9-13.5-15.9h-1.8
	c-9.6,0-13.3,6.1-13.3,15.9v30c0,13.2,7.1,16,13.3,16h1.8c9.6,0,13.4-6.4,13.5-16L247.8,249.5z M230.4,325.9
	c-1.3-0.3-2.5-0.7-3.6-1.4l-6.9-6.9c0.9,0.1,1.8,0.5,2.8,0.6L230.4,325.9z M222.9,247.3l9,9c0,0.8-0.2,1.5-0.2,2.3l-9-9
	C222.7,248.7,222.8,248,222.9,247.3z M222.8,252.1l8.7,8.7v2.3l-8.7-8.7V252.1z M222.8,256.7l8.7,8.8v2.3l-8.7-8.7V256.7z
	 M222.8,261.4l8.7,8.9v2.4l-8.7-8.9V261.4z M222.8,266l8.7,8.9v2.4l-8.7-8.7V266z M222.8,271l8.7,8.5v2.5l-8.7-8.8V271z
	 M222.8,275.6l8.7,8.9v2.3l-8.7-8.7V275.6z M231.5,291.5L223,283c-0.1-0.8-0.1-1.7-0.3-2.7l8.7,8.9V291.5z M223.5,243.2l9.5,9.6
	c-0.3,0.5-0.5,1.1-0.5,1.6L223,245C223.1,244.4,223.2,243.8,223.5,243.2z M223.8,286.1l5,5.1C226.4,290.4,224.6,288.5,223.8,286.1z
	 M225,239.8l9.8,10.1c-0.3,0-0.3,0.1-0.5,0.3c-0.1,0.4-0.3,0.7-0.6,0.9l-9.8-9.4c0.2-0.6,0.6-1.1,1-1.5V239.8z M233.5,326.6
	l-8.1-8.1c0.9,0.3,1.8,0.4,2.7,0.3l8.3,8.4C235.5,327.1,234.5,326.8,233.5,326.6z M227.7,238l9.6,9.8c-0.6,0.1-0.9,0.6-1.3,0.9
	l-9.9-9.9C226.7,238.6,227,238.1,227.7,238z M239,247l-9.3-9.6c0.6,0,1.3-0.1,2.1-0.1l9.2,9.1C240.2,246.5,239.5,246.8,239,247z
	 M239,327.4l-8.4-8.4h2.4l8.7,8.5C240.7,327.5,239.8,327.5,239,327.4z M236.5,237.4l7.4,7.3c0,0.3,0.1,0.9,0.1,1.4h-1l-8.8-8.9h0.2
	C235.1,237.2,235.8,237.2,236.5,237.4z M244,327.8l-8.8-8.9h2.3l9,8.9H244z M248.7,327.8l-9-9c0.8,0,1.5-0.3,2.3-0.3l9,9
	C250.2,327.5,249.5,327.8,248.7,327.8L248.7,327.8z M241,239.3c0.6,0.3,0.9,0.9,1.4,1.5l-2.3-2.3C240.5,238.7,240.8,239,241,239.3z
	 M255.3,327.2c-0.8,0-1.3,0.1-2.1,0.1l-9.2-9.1c0.7,0,1.4-0.2,2.1-0.4L255.3,327.2z M257.4,326.8l-9.5-9.3c0.7,0,1.3-0.2,2-0.4
	l9.3,9.4C258.8,326.6,258,326.6,257.4,326.8L257.4,326.8z M253.5,315.8l9.5,9.5c-0.6,0.3-1.2,0.5-1.8,0.6l-9.5-9.6L253.5,315.8z
	 M256.7,314.3l9.8,9.8c-0.6,0.1-1.2,0.4-1.7,0.8L255,315C255.5,314.7,256.1,314.5,256.7,314.3z M259.7,312.3l9.8,9.9
	c-0.5,0.3-1,0.6-1.5,0.8l-9.8-9.8C258.7,313.1,259.2,312.8,259.7,312.3z M262.2,310.3l9.8,10c-0.4,0.2-0.8,0.5-1.2,0.9l-9.8-9.7
	C261.3,311,261.9,310.7,262.2,310.3z M264.5,308l10,9.8c-0.4,0.4-0.8,0.8-1.2,1.2l-9.9-9.8C263.8,308.9,264.2,308.5,264.5,308z
	 M266.5,305.3l9.8,9.8c-0.3,0.5-0.6,1-0.9,1.5l-9.7-10C266,306.2,266.3,305.6,266.5,305.3z M268.2,302l9.6,9.8
	c-0.1,0.6-0.3,1.1-0.8,1.5l-9.8-9.5C267.7,303.2,268,302.6,268.2,302z M269.4,298.7l9.6,9.3c-0.2,0.6-0.4,1.3-0.6,2l-9.6-9.6
	C269,299.8,269.3,299.3,269.4,298.7z M270.3,294.9l9.5,9.1c-0.2,0.7-0.4,1.4-0.5,2.1l-9.3-9.4C270.2,296.2,270.3,295.6,270.3,294.9
	L270.3,294.9z M276.9,239.6c0.6,1.4,1.1,2.8,1.5,4.2l-7.7-7.8l-0.6-3L276.9,239.6z M271.1,290.6l9,9.1c-0.1,0.7-0.2,1.4-0.1,2.1
	l-9.2-9C270.9,292.1,270.9,291.4,271.1,290.6L271.1,290.6z M279.8,249.8l-8.6-8.6c0-0.9,0-1.7-0.1-2.6l8.1,8.1L279.8,249.8z
	 M271.2,286.2l8.9,8.9v2.3l-9-8.9C271.2,287.8,271.2,287,271.2,286.2L271.2,286.2z M279.9,252.3c0.1,0.8,0.2,1.6,0.2,2.4l-8.9-8.7
	v-2.2L279.9,252.3z M271.2,248.4l8.9,8.9v2.3l-8.9-8.9V248.4z M280.1,264.3l-8.9-8.8v-2.4l8.8,8.9L280.1,264.3z M271.2,257.7
	l8.9,8.9v2.4l-8.9-8.7V257.7z M271.2,262.7l8.9,8.5v2.6l-8.9-8.9V262.7z M271.2,267.3l8.9,8.9v2.3l-8.9-8.7V267.3z M271.2,272
	l8.9,8.9v2.4l-8.9-8.7V272z M271.2,276.8l8.9,8.7v2.6l-8.9-8.9V276.8z M271.2,281.6l8.9,8.9v2.3l-8.9-8.9V281.6z"/>
<path class="st1" d="M339.8,284.3l12.6,27.8c0.3,0.6,0.1,1.3-0.4,1.6c-0.2,0.1-0.4,0.2-0.6,0.2h-18.5c-0.5,0-0.9-0.3-1-0.8
	l-11.7-25.5h-7.6v24.9c0,0.7-0.6,1.4-1.4,1.4h-17.3c-0.7-0.1-1.1-0.7-1-1.4v-96.3c-0.1-0.7,0.4-1.3,1-1.3H325
	c16.6,0,26.7,9.4,26.7,27v18.9c0.1,4.8-0.8,9.6-2.7,14C347.2,278.9,343.9,282.3,339.8,284.3z M301.8,317.5l8.7,8.9h-2.4l-8.8-8.9
	H301.8z M306.5,317.5l8.9,8.9h-2.6l-8.6-8.9H306.5z M320,326.3h-2.4l-8.7-8.9h2.3L320,326.3z M332.1,246.4
	c0-10.5-3.9-11.6-15.3-11.6h-4.4V268h4.4c9.4,0,15-0.2,15.3-11.9V246.4z M314.6,316.1l9.9,9.8c-0.4,0.1-0.6,0.5-0.9,0.5h-1.2
	l-9.2-9.3C313.7,316.8,314.2,316.5,314.6,316.1z M316.1,312.8l8.7,8.7v2.3l-9.2-9.1C315.8,314,316,313.4,316.1,312.8z M326.1,247.1
	h-1.3v0.9l-8.7-8.6v-1.2h1.2L326.1,247.1z M324.8,250.6v2.4l-8.7-8.9v-2.4L324.8,250.6z M324.8,255.2v2.4l-8.7-8.8v-2.3L324.8,255.2
	z M324.8,259.9v2.4l-8.7-8.7v-2.3L324.8,259.9z M322.1,264.4l-6-6v-2.4l8.3,8.3C323.6,264.3,322.8,264.4,322.1,264.4L322.1,264.4z
	 M317.3,264.4l-1.2-1.4v-2.4l3.8,3.8H317.3z M319.5,295.1l-3.4-3.8v-0.1h1.8L319.5,295.1z M323.6,303.8l-7.5-7.5v-2.5l5.6,5.7
	L323.6,303.8z M316.1,298.5l8.7,8.7v2.5l-8.7-8.9V298.5z M316.1,303.4l8.7,8.7v2.4l-8.7-8.9V303.4z M316.1,308l8.7,8.7v2.4l-8.7-8.9
	V308z M328.5,244.7v2.4h-0.2l-8.5-8.9h2.3L328.5,244.7z M324.4,238.3c2,0.2,3.5,1.8,3.8,3.8L324.4,238.3z M339.6,317.5l8.9,8.9H346
	l-8.9-8.9H339.6z M344.3,317.5l8.8,8.9h-2.4l-8.7-8.9H344.3z M345.3,287.5l-1.1-1.6c0.3-0.3,0.7-0.5,1.1-0.6l9.8,9.8
	c-0.5,0.3-1,0.6-1.5,0.9L345.3,287.5z M356.3,293.8l-9.8-9.8c0.4-0.3,0.8-0.8,1.2-1l9.8,9.8C357,293,356.7,293.5,356.3,293.8z
	 M349.1,317.5l8.7,8.9h-2.4l-8.5-8.9H349.1z M352.4,297.1l1.9,4.2l-5.1-4.9l-2.1-4.4L352.4,297.1z M358.5,291.4l-9.8-9.8
	c0.4-0.4,0.8-0.8,1-1.4l9.9,9.8C359.3,290.5,358.9,290.9,358.5,291.4L358.5,291.4z M360.5,288.5l-9.8-9.8c0.4-0.5,0.7-1,0.9-1.5
	l9.8,9.8C361.1,287.5,360.8,288,360.5,288.5L360.5,288.5z M353.1,304.9l-2.1-4.4l5.3,5.1l1.9,4.5L353.1,304.9z M353.3,317l9.3,9.3
	h-2.3l-8.8-8.9C352.1,317.5,352.7,317.3,353.3,317L353.3,317z M362,285.4l-9.6-9.6c0.4-0.5,0.7-1,0.8-1.6l9.6,9.6
	C362.5,284.3,362.3,284.8,362,285.4L362,285.4z M363,281.8l-9.3-9.3c0.1-0.7,0.3-1.3,0.6-2l9.3,9.5
	C363.4,280.6,363.2,281.2,363,281.8L363,281.8z M355.1,235.7c-0.3-0.9-0.5-1.9-0.6-2.8l6.3,6.4c0.7,1.3,1.3,2.6,1.8,4.1L355.1,235.7
	z M355.1,266.6l9,9c0.1,0.7,0,1.4-0.3,2.1l-9.2-9.1C354.7,267.9,354.8,267.2,355.1,266.6L355.1,266.6z M364.8,324.4
	c0.2,0.6,0.2,1.2-0.3,1.5l-9.8-9.9c0.3-0.2,0.5-0.4,0.6-0.8c0.2-0.1,0.2-0.5,0.4-0.6l8.4,8.4L364.8,324.4z M355.2,238.3l8.3,8.3
	c0.2,0.9,0.3,1.9,0.3,2.9l-8.4-8.4C355.4,240,355.3,239.1,355.2,238.3L355.2,238.3z M364.2,273.4l-9-9c0.1-0.7,0.2-1.5,0.2-2.3
	l8.8,8.9V273.4z M355.8,310.7l-0.6-1.5l5.1,5.3l2,4.4l-6.2-6C356.2,312.1,356.1,311.4,355.8,310.7L355.8,310.7z M355.4,243.2
	l8.7,8.8c0.1,0.7,0.2,1.5,0.2,2.3l-8.8-8.7V243.2z M364.2,259.1l-8.8-8.9V248l8.8,8.7V259.1z M364.2,263.8l-8.8-8.7v-2.3l8.8,8.6
	V263.8z M364.2,268.6l-8.8-8.7v-2.4l8.8,8.8V268.6z"/>
<path class="st2" d="M420.8,308c-0.3,0-0.5-0.2-0.5-0.5c0,0,0,0,0,0V301c0-0.3,0.2-0.5,0.5-0.5c0,0,0,0,0,0h3.6
	c8.4,0,11.9,4.5,11.9,13c0,7.9-3.1,13.1-11.9,13.1h-15c-8.4,0-11.8-4.6-11.8-13.1c0-8,3.1-13,11.8-13h1.2c0.3,0,0.5,0.2,0.5,0.5
	c0,0,0,0,0,0v6.6c0,0.3-0.2,0.5-0.5,0.5c0,0,0,0,0,0h-0.9c-3.1,0-4.4,2.3-4.4,5.1v0.7c-0.2,1.5,0.5,3,1.7,4c1.3,0.8,2.8,1.2,4.4,1.1
	h11.3c4.9,0,6-2.8,6-5.1v-0.7c0.2-1.5-0.5-3.1-1.6-4c-1.3-0.8-2.8-1.2-4.4-1.1L420.8,308z M401,269.1c1.9-1.7,4.6-2.5,8.4-2.5h15
	c3.9,0,6.7,0.8,8.5,2.5c2.3,2.2,3.4,5.6,3.4,10.5c0,5.1-1.1,8.4-3.4,10.5c-1.8,1.6-4.6,2.6-8.5,2.6h-15c-3.8,0-6.6-0.9-8.4-2.6
	c-2.3-2.2-3.4-5.6-3.4-10.5C397.6,274.7,398.7,271.3,401,269.1z M411.3,274.2c-5,0-6,2.7-6,5.1v0.7c0,3.6,2.3,5.1,6,5.1h11.4
	c5,0,6.1-2.7,6.1-5.1v-0.7c0-3.6-2.5-5.1-6.1-5.1H411.3z M398.7,225.8h36.6c0.3,0,0.5,0.2,0.5,0.5c0,0,0,0,0,0v6.2
	c0,0.3-0.3,0.4-0.5,0.4h-21.1l21.3,6.3c0.2,0.1,0.3,0.2,0.3,0.4v4.5c0,0.2-0.1,0.4-0.3,0.4l-21.7,5.9h21.5c0.3,0,0.5,0.2,0.5,0.5
	c0,0,0,0,0,0v6.3c0,0.3-0.3,0.4-0.5,0.4h-36.6c-0.3,0-0.5-0.2-0.5-0.4v-8c0-0.2,0.1-0.4,0.3-0.5l23.1-6.9l-23.1-7.6
	c-0.2,0-0.4-0.2-0.3-0.4v-7.7C398.1,226.1,398.4,225.8,398.7,225.8C398.6,225.8,398.6,225.8,398.7,225.8z M381,312.6
	c3.8,0,6.9,3.1,6.9,6.9s-3.1,6.9-6.9,6.9c-3.8,0-6.9-3.1-6.9-6.9S377.2,312.6,381,312.6z"/>
</svg>
